<svg width="26" height="26" viewBox="0 0 26 26" fill="none" xmlns="http://www.w3.org/2000/svg">
<rect width="26" height="26" rx="13" fill="#F17B0E"/>
<path d="M14.75 7.75C15.072 7.75 15.3334 8.01133 15.3334 8.33333V9.5H18.25C18.572 9.5 18.8334 9.76133 18.8334 10.0833V17.6667C18.8334 17.9887 18.572 18.25 18.25 18.25H7.75002C7.42802 18.25 7.16669 17.9887 7.16669 17.6667V10.0833C7.16669 9.76133 7.42802 9.5 7.75002 9.5H10.6667V8.33333C10.6667 8.01133 10.928 7.75 11.25 7.75H14.75ZM10.6667 10.6667H9.50002V17.0833H10.6667V10.6667ZM16.5 10.6667H15.3334V17.0833H16.5V10.6667ZM14.1667 8.91667H11.8334V9.5H14.1667V8.91667Z" fill="white"/>
</svg>
