<svg width="99" height="34" viewBox="0 0 99 34" fill="none" xmlns="http://www.w3.org/2000/svg">
<rect width="9.55901" height="4.09463" transform="matrix(0.849252 0.527987 -0.445772 0.895146 12.567 9.0033)" fill="white"/>
<rect width="10.126" height="4.12352" transform="matrix(0.889728 -0.456492 0.381599 0.924328 9.64453 24.314)" fill="white"/>
<ellipse cx="7.67109" cy="26.8829" rx="5.65907" ry="6.13192" fill="white"/>
<ellipse cx="23.3411" cy="19.1307" rx="5.65907" ry="6.13192" fill="white"/>
<path d="M13.7107 5.99283C15.0948 8.97774 13.9325 12.6688 11.1146 14.237C8.29672 15.8052 4.89031 14.6568 3.50617 11.6719C2.12204 8.68695 3.28433 4.99591 6.10222 3.42769C8.92011 1.85947 12.3265 3.00792 13.7107 5.99283Z" fill="white"/>
<path d="M38.1397 24.7427V11.6518H43.3812C44.3443 11.6518 45.1475 11.7945 45.791 12.08C46.4345 12.3655 46.9181 12.7619 47.242 13.269C47.5659 13.7718 47.7278 14.3513 47.7278 15.0076C47.7278 15.519 47.6255 15.9685 47.421 16.3563C47.2164 16.7398 46.9352 17.0552 46.5772 17.3023C46.2235 17.5452 45.8187 17.7178 45.3627 17.8201V17.9479C45.8613 17.9692 46.3279 18.1099 46.7626 18.3698C47.2015 18.6297 47.5574 18.9941 47.8301 19.4628C48.1028 19.9273 48.2392 20.4813 48.2392 21.1248C48.2392 21.8194 48.0666 22.4394 47.7214 22.9849C47.3805 23.5261 46.8755 23.9543 46.2065 24.2697C45.5375 24.585 44.7129 24.7427 43.7328 24.7427H38.1397ZM40.9075 22.4799H43.1639C43.9352 22.4799 44.4977 22.3329 44.8514 22.0388C45.2051 21.7405 45.3819 21.3442 45.3819 20.8499C45.3819 20.4877 45.2946 20.1681 45.1199 19.8911C44.9451 19.6141 44.6958 19.3968 44.372 19.2391C44.0524 19.0815 43.671 19.0026 43.2278 19.0026H40.9075V22.4799ZM40.9075 17.1297H42.9593C43.3386 17.1297 43.6752 17.0637 43.9693 16.9316C44.2676 16.7952 44.502 16.6035 44.6724 16.3563C44.8471 16.1092 44.9345 15.813 44.9345 15.4678C44.9345 14.9948 44.7662 14.6134 44.4295 14.3236C44.0971 14.0339 43.6241 13.889 43.0105 13.889H40.9075V17.1297ZM54.4634 24.9344C53.4535 24.9344 52.5842 24.7299 51.8555 24.3208C51.131 23.9074 50.5728 23.3236 50.1808 22.5694C49.7887 21.8109 49.5927 20.9138 49.5927 19.8783C49.5927 18.8684 49.7887 17.982 50.1808 17.2192C50.5728 16.4565 51.1246 15.862 51.8363 15.4359C52.5522 15.0097 53.3917 14.7967 54.3548 14.7967C55.0025 14.7967 55.6055 14.9011 56.1637 15.1099C56.7262 15.3144 57.2163 15.6234 57.6339 16.0367C58.0558 16.4501 58.3839 16.9699 58.6183 17.5964C58.8526 18.2185 58.9698 18.9472 58.9698 19.7824V20.5303H50.6793V18.8428H56.4066C56.4066 18.4508 56.3214 18.1035 56.1509 17.8009C55.9805 17.4984 55.744 17.2619 55.4414 17.0914C55.1431 16.9167 54.7958 16.8293 54.3995 16.8293C53.9862 16.8293 53.6197 16.9252 53.3001 17.117C52.9847 17.3045 52.7376 17.558 52.5586 17.8776C52.3796 18.193 52.288 18.5445 52.2837 18.9323V20.5367C52.2837 21.0225 52.3732 21.4422 52.5522 21.7959C52.7354 22.1496 52.9933 22.4224 53.3256 22.6141C53.658 22.8059 54.0522 22.9018 54.5082 22.9018C54.8107 22.9018 55.0877 22.8592 55.3391 22.7739C55.5906 22.6887 55.8058 22.5609 55.9847 22.3904C56.1637 22.2199 56.3001 22.0111 56.3938 21.764L58.9123 21.9302C58.7844 22.5353 58.5224 23.0637 58.1261 23.5154C57.734 23.9628 57.2269 24.3123 56.6048 24.5637C55.9869 24.8109 55.2731 24.9344 54.4634 24.9344Z" fill="url(#paint0_linear_293_3305)"/>
<path d="M65.4409 24.9344C66.4508 24.9344 67.3201 24.7299 68.0488 24.3208C68.7733 23.9074 69.3315 23.3236 69.7235 22.5694C70.1156 21.8109 70.3116 20.9138 70.3116 19.8783C70.3116 18.8684 70.1156 17.982 69.7235 17.2192C69.3315 16.4565 68.7797 15.862 68.068 15.4359C67.3521 15.0097 66.5126 14.7967 65.5495 14.7967C64.9018 14.7967 64.2988 14.9011 63.7406 15.1099C63.1781 15.3144 62.688 15.6234 62.2704 16.0367C61.8485 16.4501 61.5204 16.9699 61.286 17.5964C61.0517 18.2185 60.9345 18.9472 60.9345 19.7824V20.5303H69.225V18.8428H63.4977C63.4977 18.4508 63.5829 18.1035 63.7534 17.8009C63.9238 17.4984 64.1603 17.2619 64.4629 17.0914C64.7612 16.9167 65.1085 16.8293 65.5048 16.8293C65.9181 16.8293 66.2846 16.9252 66.6042 17.117C66.9196 17.3045 67.1667 17.558 67.3457 17.8776C67.5247 18.193 67.6163 18.5445 67.6206 18.9323V20.5367C67.6206 21.0225 67.5311 21.4422 67.3521 21.7959C67.1689 22.1496 66.911 22.4224 66.5787 22.6141C66.2463 22.8059 65.8521 22.9018 65.3961 22.9018C65.0936 22.9018 64.8166 22.8592 64.5652 22.7739C64.3137 22.6887 64.0985 22.5609 63.9196 22.3904C63.7406 22.2199 63.6042 22.0111 63.5105 21.764L60.992 21.9302C61.1199 22.5353 61.3819 23.0637 61.7782 23.5154C62.1703 23.9628 62.6774 24.3123 63.2995 24.5637C63.9174 24.8109 64.6312 24.9344 65.4409 24.9344Z" fill="white"/>
<path d="M72.0886 24.7427V14.9245H74.6838V16.6567H74.7988C75.0034 16.0815 75.3443 15.6276 75.8216 15.2952C76.2988 14.9628 76.8699 14.7967 77.5346 14.7967C78.2079 14.7967 78.7811 14.965 79.2541 15.3016C79.7271 15.634 80.0424 16.0857 80.2001 16.6567H80.3024C80.5027 16.0942 80.8649 15.6447 81.389 15.308C81.9174 14.9671 82.5417 14.7967 83.2619 14.7967C84.1781 14.7967 84.9217 15.0886 85.4927 15.6724C86.068 16.2519 86.3556 17.0744 86.3556 18.1397V24.7427H83.639V18.6766C83.639 18.1312 83.4941 17.7221 83.2044 17.4494C82.9146 17.1766 82.5524 17.0403 82.1177 17.0403C81.6234 17.0403 81.2377 17.1979 80.9608 17.5133C80.6838 17.8244 80.5453 18.2356 80.5453 18.7469V24.7427H77.9054V18.6191C77.9054 18.1376 77.7669 17.754 77.4899 17.4685C77.2172 17.183 76.8571 17.0403 76.4096 17.0403C76.1071 17.0403 75.8343 17.117 75.5914 17.2704C75.3528 17.4195 75.1632 17.6305 75.0225 17.9032C74.8819 18.1717 74.8116 18.487 74.8116 18.8492V24.7427H72.0886ZM88.4554 24.7427V23.1191L93.2623 17.1681V17.0978H88.6216V14.9245H96.5414V16.6951L92.0286 22.4991V22.5694H96.7076V24.7427H88.4554Z" fill="white"/>
<defs>
<linearGradient id="paint0_linear_293_3305" x1="48.502" y1="17.7427" x2="37.002" y2="17.7427" gradientUnits="userSpaceOnUse">
<stop stop-color="white"/>
<stop offset="0.977778" stop-color="white"/>
</linearGradient>
</defs>
</svg>
