<svg width="16" height="16" viewBox="0 0 16 16" fill="none" xmlns="http://www.w3.org/2000/svg">
<path d="M9.33341 9.50166V14.667H2.66675C2.66654 13.8529 2.8527 13.0496 3.21095 12.3186C3.5692 11.5876 4.09004 10.9483 4.73356 10.4497C5.37708 9.95108 6.1262 9.60641 6.92352 9.44209C7.72083 9.27776 8.54519 9.29814 9.33341 9.50166ZM8.00008 8.66699C5.79008 8.66699 4.00008 6.87699 4.00008 4.66699C4.00008 2.45699 5.79008 0.666992 8.00008 0.666992C10.2101 0.666992 12.0001 2.45699 12.0001 4.66699C12.0001 6.87699 10.2101 8.66699 8.00008 8.66699ZM12.0001 11.3337V9.33366H13.3334V11.3337H15.3334V12.667H13.3334V14.667H12.0001V12.667H10.0001V11.3337H12.0001Z" fill="#6200EE"/>
</svg>
