<svg width="159" height="130" viewBox="0 0 159 130" fill="none" xmlns="http://www.w3.org/2000/svg">
<path d="M7.2964 101.26C7.74021 100.506 8.7112 100.254 9.46681 100.697L16.9314 105.071C17.6893 105.515 17.9432 106.489 17.498 107.245L13.1137 114.692C12.6698 115.445 11.6989 115.697 10.9432 115.254L3.47863 110.881C2.72076 110.437 2.46688 109.462 2.91203 108.706L7.2964 101.26Z" fill="#FFCC93"/>
<ellipse cx="156.61" cy="72.7525" rx="2.39106" ry="2.38528" fill="#6FFFF7"/>
<ellipse cx="47.8134" cy="4.77056" rx="4.78211" ry="4.77056" fill="#4891FF"/>
<ellipse cx="80.0137" cy="75.7339" rx="54.3965" ry="54.2652" fill="#F2E9FF"/>
<path d="M41.3047 75.2428C41.3047 53.643 58.9095 36.1328 80.5094 36.1328C102.109 36.1328 119.714 53.643 119.714 75.2428C119.714 96.8427 102.109 114.353 80.5094 114.353C58.9095 114.353 41.3047 96.8427 41.3047 75.2428Z" fill="white"/>
<path fillRule="evenodd" clipRule="evenodd" d="M92.6936 66.0938C94.5358 64.9643 94.8783 62.7282 93.4584 61.0991C92.0386 59.4701 89.3942 59.0652 87.552 60.1946L64.8548 74.1101C64.6317 74.2469 64.7141 74.5522 64.9902 74.6117L74.7475 76.7136C75.0409 76.7768 75.3457 76.7296 75.5829 76.5842L92.6936 66.0938ZM68.3735 84.3287C66.5283 85.4521 66.1606 87.678 67.5484 89.3243C68.9657 91.0056 71.6678 91.4388 73.5475 90.286L96.1674 76.4145C96.3869 76.2799 96.3059 75.9794 96.0343 75.9209L86.268 73.8166C85.9734 73.7531 85.6674 73.8001 85.4288 73.9454L68.3735 84.3287Z" fill="#6200EE"/>
</svg>
