<svg width="40" height="40" viewBox="0 0 40 40" fill="none" xmlns="http://www.w3.org/2000/svg">
<g clipPath="url(#clip0_2526_20405)">
<path d="M20 38.2132L9.39334 27.6065C7.29557 25.5087 5.86698 22.836 5.28821 19.9263C4.70945 17.0166 5.00651 14.0006 6.14183 11.2597C7.27715 8.51882 9.19974 6.17616 11.6665 4.52794C14.1332 2.87973 17.0333 2 20 2C22.9667 2 25.8668 2.87973 28.3335 4.52794C30.8003 6.17616 32.7229 8.51882 33.8582 11.2597C34.9935 14.0006 35.2906 17.0166 34.7118 19.9263C34.133 22.836 32.7044 25.5087 30.6067 27.6065L20 38.2132Z" fill="#6200EE"/>
<circle cx="20" cy="17" r="10" fill="#F2E9FF"/>
<circle cx="20" cy="17" r="8" fill="white"/>
<path d="M20.3544 14.6519C20.4282 14.2719 20.3807 13.8654 20.1917 13.4936C19.741 12.6067 18.6564 12.253 17.7691 12.7035C16.8819 13.1541 16.528 14.2383 16.9787 15.1252C17.4294 16.012 18.5141 16.3658 19.4013 15.9152C19.52 15.855 19.629 15.7835 19.7279 15.7026L21.5689 16.7584C21.5075 16.9397 21.4743 17.1339 21.4743 17.3358C21.4743 17.4379 21.4828 17.5379 21.4991 17.6353L19.6947 18.4893C19.3645 18.0763 18.8563 17.8117 18.2863 17.8117C17.2911 17.8117 16.4844 18.6181 16.4844 19.6129C16.4844 20.6076 17.2911 21.4141 18.2863 21.4141C19.2657 21.4141 20.0626 20.633 20.0876 19.66L22.1053 18.705C22.4203 18.9744 22.8292 19.137 23.2762 19.137C24.2714 19.137 25.0781 18.3306 25.0781 17.3358C25.0781 16.3411 24.2714 15.5347 23.2762 15.5347C22.9354 15.5347 22.6167 15.6292 22.345 15.7935L20.3544 14.6519Z" fill="#6200EE"/>
</g>
<defs>
<clipPath id="clip0_2526_20405">
<rect width="40" height="40" fill="white"/>
</clipPath>
</defs>
</svg>
