<svg width="29" height="29" viewBox="0 0 29 29" fill="none" xmlns="http://www.w3.org/2000/svg">
<circle cx="14.6458" cy="14.9968" r="14.0032" fill="#6200EE"/>
<g clipPath="url(#clip0_2311_21249)">
<path d="M20.4826 13.2707L8.59866 10.6276C8.53721 10.6138 8.473 10.6193 8.41475 10.6432C8.3565 10.6671 8.30702 10.7084 8.27301 10.7614C8.23901 10.8144 8.22212 10.8766 8.22465 10.9395C8.22717 11.0025 8.24898 11.0631 8.28712 11.1132L11.7819 15.7129L11.3148 21.772C11.31 21.8337 11.324 21.8954 11.3549 21.949C11.3858 22.0026 11.4321 22.0456 11.4879 22.0724C11.5437 22.0993 11.6062 22.1086 11.6674 22.0992C11.7285 22.0899 11.7855 22.0623 11.8307 22.02L20.6265 13.7947C20.6673 13.7565 20.6969 13.7078 20.7121 13.654C20.7273 13.6002 20.7275 13.5432 20.7127 13.4893C20.6979 13.4353 20.6686 13.3865 20.6281 13.348C20.5875 13.3094 20.5372 13.2827 20.4826 13.2707Z" fill="white"/>
</g>
<defs>
<clipPath id="clip0_2311_21249">
<rect width="14.7403" height="14.7403" fill="white" transform="matrix(-0.857409 -0.514636 -0.514636 0.857409 23.5791 12.7656)"/>
</clipPath>
</defs>
</svg>
