<svg width="26" height="26" viewBox="0 0 26 26" fill="none" xmlns="http://www.w3.org/2000/svg">
<rect width="26" height="26" rx="13" fill="#FF70AD"/>
<g clipPath="url(#clip0_298_6141)">
<path fillRule="evenodd" clipRule="evenodd" d="M19.947 8.96967C20.2399 9.26256 20.2399 9.73744 19.947 10.0303L14.4053 15.572C14.2647 15.7126 14.0739 15.7917 13.875 15.7917C13.6761 15.7917 13.4853 15.7126 13.3446 15.572L10.9583 13.1857L7.11364 17.0303C6.82075 17.3232 6.34588 17.3232 6.05298 17.0303C5.76009 16.7374 5.76009 16.2626 6.05298 15.9697L10.428 11.5947C10.5686 11.454 10.7594 11.375 10.9583 11.375C11.1572 11.375 11.348 11.454 11.4886 11.5947L13.875 13.981L18.8863 8.96967C19.1792 8.67678 19.6541 8.67678 19.947 8.96967Z" fill="white"/>
<path fillRule="evenodd" clipRule="evenodd" d="M15.1667 9.5C15.1667 9.08579 15.5025 8.75 15.9167 8.75H19.4167C19.8309 8.75 20.1667 9.08579 20.1667 9.5V13C20.1667 13.4142 19.8309 13.75 19.4167 13.75C19.0025 13.75 18.6667 13.4142 18.6667 13V10.25H15.9167C15.5025 10.25 15.1667 9.91421 15.1667 9.5Z" fill="white"/>
</g>
<defs>
<clipPath id="clip0_298_6141">
<rect width="14" height="14" fill="white" transform="translate(6 6)"/>
</clipPath>
</defs>
</svg>
