<svg width="26" height="26" viewBox="0 0 26 26" fill="none" xmlns="http://www.w3.org/2000/svg">
<rect width="26" height="26" rx="13" fill="#9852FF"/>
<path d="M10.6667 9.5H11.8334V10.6667H10.6667V9.5Z" fill="white"/>
<path fillRule="evenodd" clipRule="evenodd" d="M14.75 10.0833H18.25C18.4047 10.0833 18.553 10.1448 18.6624 10.2542C18.7718 10.3636 18.8333 10.512 18.8333 10.6667V17.6667C18.8333 17.8214 18.7718 17.9698 18.6624 18.0791C18.553 18.1885 18.4047 18.25 18.25 18.25H7.74996C7.59525 18.25 7.44688 18.1885 7.33748 18.0791C7.22808 17.9698 7.16663 17.8214 7.16663 17.6667V8.33333C7.16663 8.17862 7.22808 8.03025 7.33748 7.92085C7.44688 7.81146 7.59525 7.75 7.74996 7.75H12.4166C12.5713 7.75 12.7197 7.81146 12.8291 7.92085C12.9385 8.03025 13 8.17862 13 8.33333V12.4167H14.1666V10.6667C14.1666 10.512 14.2281 10.3636 14.3375 10.2542C14.4469 10.1448 14.5952 10.0833 14.75 10.0833ZM8.33334 15.3333H9.5V14.1667H8.33334V15.3333ZM8.33334 13H9.5V11.8333H8.33334V13ZM8.33334 10.6667H9.5V9.5H8.33334V10.6667ZM10.6667 15.3333H11.8333V14.1667H10.6667V15.3333ZM10.6667 13H11.8333V11.8333H10.6667V13ZM15.9167 15.3333H17.0833V14.1667H15.9167V15.3333ZM15.9167 13H17.0833V11.8333H15.9167V13Z" fill="white"/>
</svg>
