<svg width="19" height="19" viewBox="0 0 19 19" fill="none" xmlns="http://www.w3.org/2000/svg">
<path d="M3.41484 15C3.46172 15 3.50859 14.9953 3.55547 14.9883L7.49766 14.2969C7.54453 14.2875 7.58906 14.2664 7.62188 14.2313L17.557 4.29609C17.5788 4.27441 17.596 4.24866 17.6078 4.2203C17.6195 4.19195 17.6256 4.16156 17.6256 4.13086C17.6256 4.10016 17.6195 4.06977 17.6078 4.04142C17.596 4.01306 17.5788 3.98731 17.557 3.96563L13.6617 0.0679688C13.6172 0.0234375 13.5586 0 13.4953 0C13.432 0 13.3734 0.0234375 13.3289 0.0679688L3.39375 10.0031C3.35859 10.0383 3.3375 10.0805 3.32812 10.1273L2.63672 14.0695C2.61392 14.1951 2.62207 14.3243 2.66045 14.446C2.69884 14.5677 2.76632 14.6782 2.85703 14.768C3.01172 14.918 3.20625 15 3.41484 15ZM4.99453 10.9125L13.4953 2.41406L15.2133 4.13203L6.7125 12.6305L4.62891 12.9984L4.99453 10.9125ZM18 16.9688H0.75C0.335156 16.9688 0 17.3039 0 17.7188V18.5625C0 18.6656 0.084375 18.75 0.1875 18.75H18.5625C18.6656 18.75 18.75 18.6656 18.75 18.5625V17.7188C18.75 17.3039 18.4148 16.9688 18 16.9688Z" fill="#6200EE"/>
</svg>
