<svg width="26" height="26" viewBox="0 0 26 26" fill="none" xmlns="http://www.w3.org/2000/svg">
<rect width="26" height="26" rx="13" fill="#FF5E4B"/>
<g clipPath="url(#clip0_298_6131)">
<path fillRule="evenodd" clipRule="evenodd" d="M6.7364 14.9031C7.31464 14.3249 8.0989 14 8.91665 14H13C13.8177 14 14.602 14.3249 15.1802 14.9031C15.7585 15.4813 16.0833 16.2656 16.0833 17.0833V18.25C16.0833 18.6642 15.7475 19 15.3333 19C14.9191 19 14.5833 18.6642 14.5833 18.25V17.0833C14.5833 16.6634 14.4165 16.2607 14.1196 15.9637C13.8226 15.6668 13.4199 15.5 13 15.5H8.91665C8.49672 15.5 8.09399 15.6668 7.79706 15.9637C7.50013 16.2607 7.33331 16.6634 7.33331 17.0833V18.25C7.33331 18.6642 6.99753 19 6.58331 19C6.1691 19 5.83331 18.6642 5.83331 18.25V17.0833C5.83331 16.2656 6.15816 15.4813 6.7364 14.9031Z" fill="white"/>
<path fillRule="evenodd" clipRule="evenodd" d="M10.9583 8.5C10.0839 8.5 9.375 9.20888 9.375 10.0833C9.375 10.9578 10.0839 11.6667 10.9583 11.6667C11.8328 11.6667 12.5417 10.9578 12.5417 10.0833C12.5417 9.20888 11.8328 8.5 10.9583 8.5ZM7.875 10.0833C7.875 8.38046 9.25546 7 10.9583 7C12.6612 7 14.0417 8.38046 14.0417 10.0833C14.0417 11.7862 12.6612 13.1667 10.9583 13.1667C9.25546 13.1667 7.875 11.7862 7.875 10.0833Z" fill="white"/>
<path fillRule="evenodd" clipRule="evenodd" d="M17.6667 9.91663C18.0809 9.91663 18.4167 10.2524 18.4167 10.6666V14.1666C18.4167 14.5808 18.0809 14.9166 17.6667 14.9166C17.2525 14.9166 16.9167 14.5808 16.9167 14.1666V10.6666C16.9167 10.2524 17.2525 9.91663 17.6667 9.91663Z" fill="white"/>
<path fillRule="evenodd" clipRule="evenodd" d="M15.1667 12.4166C15.1667 12.0024 15.5025 11.6666 15.9167 11.6666H19.4167C19.8309 11.6666 20.1667 12.0024 20.1667 12.4166C20.1667 12.8308 19.8309 13.1666 19.4167 13.1666H15.9167C15.5025 13.1666 15.1667 12.8308 15.1667 12.4166Z" fill="white"/>
</g>
<defs>
<clipPath id="clip0_298_6131">
<rect width="14" height="14" fill="white" transform="translate(6 6)"/>
</clipPath>
</defs>
</svg>
