<svg width="26" height="26" viewBox="0 0 26 26" fill="none" xmlns="http://www.w3.org/2000/svg">
<rect width="26" height="26" rx="13" fill="#9952FF"/>
<g clipPath="url(#clip0_298_6143)">
<path d="M19.9334 12.391C19.9333 12.2665 19.9 12.1443 19.8367 12.0371C19.7735 11.9298 19.6827 11.8415 19.5737 11.7812C19.2662 11.6088 18.9353 11.421 18.589 11.2219C18.5201 11.0466 18.4402 10.8687 18.3498 10.6906C18.4349 10.3293 18.5128 9.97671 18.5814 9.64138C18.6046 9.52769 18.5993 9.41001 18.5658 9.2989C18.5323 9.18779 18.4718 9.08673 18.3896 9.00479C18.0192 8.63332 17.6336 8.24298 17.2605 7.86443L17.239 7.84268C17.157 7.75731 17.0544 7.69439 16.9412 7.6599C16.8279 7.62541 16.7077 7.62052 16.592 7.64568C16.2582 7.71484 15.9095 7.79239 15.554 7.87674C15.3823 7.78831 15.2062 7.70857 15.0264 7.63782L14.9478 7.50055C14.7891 7.21867 14.6243 6.92604 14.4697 6.64573C14.409 6.53749 14.3209 6.44713 14.2142 6.38372C14.1075 6.3203 13.9861 6.28608 13.862 6.28447C13.3619 6.27871 12.8549 6.27871 12.3548 6.28447C12.2301 6.2851 12.1079 6.31905 12.0007 6.38279C11.8935 6.44654 11.8053 6.53777 11.7452 6.64704C11.5663 6.97556 11.3785 7.30852 11.1904 7.63782C11.0133 7.70724 10.8357 7.78767 10.6604 7.87726C10.2858 7.79134 9.946 7.71537 9.62457 7.64594H9.6209C9.5057 7.62221 9.38638 7.62782 9.27391 7.66224C9.16143 7.69666 9.05942 7.7588 8.97723 7.84295C8.63274 8.1953 8.25655 8.57647 7.82717 9.00453C7.74475 9.08659 7.68398 9.18783 7.65033 9.29917C7.61668 9.4105 7.61119 9.52845 7.63436 9.64243C7.70352 9.98011 7.78133 10.3322 7.86595 10.6903C7.77733 10.8635 7.6975 11.0409 7.62677 11.2221C7.29039 11.4157 6.96188 11.6038 6.64332 11.778C6.53428 11.8381 6.44329 11.9263 6.37981 12.0334C6.31633 12.1405 6.28267 12.2626 6.28233 12.3871C6.27918 12.887 6.27918 13.3923 6.28233 13.888C6.28244 14.0126 6.31596 14.135 6.3794 14.2424C6.44284 14.3497 6.53389 14.4381 6.64306 14.4983C6.9514 14.6694 7.2807 14.8578 7.62336 15.0587C7.692 15.2342 7.77242 15.4126 7.86307 15.5913C7.77766 15.9526 7.69986 16.3052 7.63122 16.6405C7.60801 16.7542 7.6134 16.8718 7.64692 16.9829C7.68044 17.094 7.74103 17.195 7.82325 17.2768C8.19367 17.6473 8.57903 18.0386 8.95208 18.4172L8.97356 18.4392C9.05568 18.5244 9.15826 18.5873 9.27153 18.6217C9.38479 18.656 9.50498 18.6609 9.62064 18.6357C9.94024 18.5697 10.2805 18.4939 10.658 18.4046C10.833 18.4942 11.0099 18.5741 11.1862 18.6433L11.2624 18.7782C11.4225 19.0616 11.5883 19.3545 11.7429 19.6359C11.8037 19.744 11.8918 19.8343 11.9984 19.8977C12.105 19.9611 12.2264 19.9954 12.3504 19.9971C12.6014 20 12.8573 20 13.1046 20C13.234 20 13.3642 20 13.4949 19.9985C13.616 19.9985 13.7375 19.9971 13.8588 19.9969C13.9836 19.9968 14.1061 19.9633 14.2136 19.8999C14.3211 19.8364 14.4096 19.7454 14.47 19.6361C14.688 19.2395 14.8616 18.9288 15.0254 18.6446C15.2025 18.5749 15.3798 18.4947 15.5551 18.4049C15.9218 18.4895 16.269 18.5673 16.5914 18.6365H16.5949C16.71 18.6603 16.8294 18.6548 16.9418 18.6204C17.0543 18.586 17.1564 18.5239 17.2385 18.4397C17.5838 18.0866 17.9597 17.7062 18.3883 17.2781C18.4708 17.1961 18.5316 17.0948 18.5653 16.9834C18.599 16.872 18.6045 16.754 18.5814 16.64C18.5122 16.3025 18.4344 15.9505 18.3498 15.5921C18.4384 15.4189 18.5182 15.2414 18.589 15.0603C18.9112 14.8748 19.2489 14.6812 19.5724 14.5015C19.6815 14.4414 19.7725 14.3532 19.8359 14.2461C19.8994 14.139 19.9331 14.0169 19.9334 13.8924C19.9366 13.392 19.9366 12.8867 19.9334 12.391ZM16.9168 15.6565C16.9881 15.9518 17.0572 16.2538 17.123 16.5561L16.9396 16.7395C16.7966 16.8836 16.6493 17.0319 16.5034 17.1802C16.2061 17.1154 15.9082 17.0465 15.6156 16.9745C15.4405 16.9329 15.2561 16.9596 15.1 17.0492C14.8524 17.1936 14.591 17.313 14.3196 17.4055C14.1556 17.4576 14.0173 17.5699 13.9327 17.7198C13.7928 17.9637 13.6147 18.2749 13.4365 18.5927C13.2162 18.5943 12.9943 18.5943 12.774 18.5927C12.6011 18.2846 12.4277 17.9813 12.2762 17.7185C12.1908 17.5716 12.0551 17.4605 11.8943 17.4057C11.622 17.3118 11.3592 17.192 11.1097 17.0481C10.9536 16.9586 10.7692 16.9319 10.5941 16.9735C10.3023 17.0445 10.0042 17.1136 9.70604 17.1788C9.50065 16.9693 9.29343 16.7597 9.08778 16.5538C9.15275 16.2533 9.22191 15.9512 9.29396 15.6557L9.29553 15.6489C9.33371 15.4771 9.30682 15.2972 9.22008 15.1441C9.07635 14.8932 8.95755 14.6288 8.86537 14.3548L8.86406 14.3506C8.80877 14.1897 8.6971 14.0543 8.54969 13.9694C8.26781 13.8067 7.97702 13.6404 7.68309 13.4743C7.68309 13.2521 7.68152 13.0289 7.68309 12.8084C7.94821 12.6596 8.21751 12.504 8.50018 12.3407L8.54969 12.3119C8.69798 12.2272 8.80989 12.0909 8.86406 11.9289V11.926C8.9556 11.6524 9.07416 11.3886 9.21798 11.1386C9.30782 10.9838 9.33447 10.8003 9.29238 10.6264C9.22113 10.3309 9.15197 10.0291 9.08621 9.72679L9.26959 9.54341C9.41263 9.39932 9.5596 9.25131 9.70551 9.10277C10.0199 9.17141 10.317 9.2403 10.5936 9.30842C10.7692 9.35128 10.9545 9.32532 11.1115 9.23585C11.3591 9.09141 11.6206 8.97205 11.8919 8.87957C12.0561 8.8275 12.1944 8.71518 12.2791 8.5652C12.4363 8.29275 12.5995 8.00615 12.775 7.69257C12.9956 7.691 13.2175 7.691 13.4381 7.69257C13.6301 8.03314 13.7855 8.3069 13.9345 8.56677C14.02 8.71367 14.1556 8.82475 14.3165 8.87957C14.5888 8.97297 14.8515 9.09228 15.1011 9.23585C15.2572 9.32542 15.4416 9.35212 15.6167 9.31051C15.9088 9.23926 16.2066 9.17036 16.5047 9.10513C16.6577 9.26048 16.8118 9.41583 16.9616 9.56672L17.1233 9.72941C17.0583 10.0304 16.9889 10.3319 16.9168 10.6282L16.9152 10.635C16.8771 10.8069 16.904 10.9867 16.9907 11.1399C17.1344 11.3908 17.2532 11.6551 17.3454 11.9292L17.3467 11.9334C17.402 12.0943 17.5136 12.2297 17.6611 12.3145C17.9432 12.4775 18.234 12.6438 18.5274 12.8097C18.529 13.0321 18.529 13.255 18.5274 13.4767C18.2393 13.6401 17.9472 13.8065 17.6608 13.972C17.5125 14.0568 17.4006 14.1931 17.3465 14.355V14.3579C17.2549 14.6315 17.1364 14.8953 16.9925 15.1454C16.9025 15.2997 16.8754 15.4828 16.9168 15.6565V15.6565Z" fill="white"/>
<path d="M13.1196 10.2748C12.3997 10.2583 11.6989 10.5465 11.1461 11.087C10.5761 11.646 10.2494 12.395 10.2494 13.1392C10.2494 13.8835 10.5766 14.6351 11.1469 15.1926C11.63 15.6641 12.2307 15.9444 12.8573 15.9953L12.8594 16.0036H13.1196C13.8426 15.9882 14.567 15.667 15.1071 15.1221C15.6473 14.5772 15.9578 13.8542 15.9578 13.1392C15.9578 12.4243 15.6476 11.7015 15.1069 11.1561C14.5662 10.6107 13.8423 10.2903 13.1196 10.2748ZM13.0638 11.6787H13.0871C13.8384 11.696 14.5504 12.4057 14.5504 13.1392C14.5504 13.8728 13.8384 14.5824 13.0873 14.5995C12.7468 14.6068 12.4075 14.4606 12.1288 14.1869C11.8327 13.8987 11.6572 13.5057 11.6572 13.139C11.6572 12.7722 11.8338 12.3793 12.1303 12.0911C12.4002 11.8252 12.7318 11.6787 13.0638 11.6787Z" fill="white"/>
</g>
<defs>
<clipPath id="clip0_298_6143">
<rect width="14" height="14" fill="white" transform="translate(6 6)"/>
</clipPath>
</defs>
</svg>
