<svg width="26" height="26" viewBox="0 0 26 26" fill="none" xmlns="http://www.w3.org/2000/svg">
<rect width="26" height="26" rx="13" fill="#404EFF"/>
<path fillRule="evenodd" clipRule="evenodd" d="M12.7366 6.46438C12.9064 6.40071 13.0935 6.40071 13.2633 6.46438L17.93 8.21438C18.2227 8.32415 18.4166 8.60399 18.4166 8.91663V13C18.4166 15.0848 17.0387 16.7335 15.8272 17.7936C15.2057 18.3374 14.5877 18.7618 14.1266 19.05C13.8953 19.1946 13.7015 19.3061 13.5637 19.3824C13.4948 19.4205 13.4398 19.4499 13.401 19.4703C13.3816 19.4805 13.3662 19.4884 13.3552 19.4941L13.342 19.5008L13.3378 19.5029L13.3364 19.5036C13.3362 19.5037 13.3354 19.5041 13 18.8333C12.6646 19.5041 12.6644 19.504 12.6641 19.5039L12.6621 19.5029L12.658 19.5008L12.6447 19.4941C12.6337 19.4884 12.6183 19.4805 12.5989 19.4703C12.5601 19.4499 12.5051 19.4205 12.4362 19.3824C12.2985 19.3061 12.1046 19.1946 11.8733 19.05C11.4122 18.7618 10.7943 18.3374 10.1728 17.7936C8.96129 16.7335 7.58331 15.0848 7.58331 13V8.91663C7.58331 8.60399 7.77724 8.32415 8.06997 8.21438L12.7366 6.46438ZM13 18.8333L12.6641 19.5039C12.8753 19.6095 13.1242 19.6097 13.3354 19.5041L13 18.8333ZM13 17.9778C13.0949 17.9228 13.2068 17.8561 13.3316 17.778C13.7456 17.5193 14.2943 17.1417 14.8394 16.6647C15.9613 15.6831 16.9166 14.4151 16.9166 13V9.43638L13 7.96763L9.08331 9.43638V13C9.08331 14.4151 10.0387 15.6831 11.1605 16.6647C11.7057 17.1417 12.2544 17.5193 12.6683 17.778C12.7932 17.8561 12.9051 17.9228 13 17.9778Z" fill="white"/>
</svg>
