<svg width="26" height="26" viewBox="0 0 26 26" fill="none" xmlns="http://www.w3.org/2000/svg">
<rect width="26" height="26" rx="13" fill="#FF5E4B"/>
<g clipPath="url(#clip0_298_6146)">
<path fillRule="evenodd" clipRule="evenodd" d="M6.7364 14.9031C7.31464 14.3249 8.0989 14 8.91665 14H13.5833C14.4011 14 15.1853 14.3249 15.7636 14.9031C16.3418 15.4813 16.6666 16.2656 16.6666 17.0833V18.25C16.6666 18.6642 16.3309 19 15.9166 19C15.5024 19 15.1666 18.6642 15.1666 18.25V17.0833C15.1666 16.6634 14.9998 16.2607 14.7029 15.9637C14.406 15.6668 14.0032 15.5 13.5833 15.5H8.91665C8.49672 15.5 8.09399 15.6668 7.79706 15.9637C7.50013 16.2607 7.33331 16.6634 7.33331 17.0833V18.25C7.33331 18.6642 6.99753 19 6.58331 19C6.1691 19 5.83331 18.6642 5.83331 18.25V17.0833C5.83331 16.2656 6.15816 15.4813 6.7364 14.9031Z" fill="white"/>
<path fillRule="evenodd" clipRule="evenodd" d="M11.25 8.5C10.3756 8.5 9.66669 9.20888 9.66669 10.0833C9.66669 10.9578 10.3756 11.6667 11.25 11.6667C12.1245 11.6667 12.8334 10.9578 12.8334 10.0833C12.8334 9.20888 12.1245 8.5 11.25 8.5ZM8.16669 10.0833C8.16669 8.38046 9.54714 7 11.25 7C12.9529 7 14.3334 8.38046 14.3334 10.0833C14.3334 11.7862 12.9529 13.1667 11.25 13.1667C9.54714 13.1667 8.16669 11.7862 8.16669 10.0833Z" fill="white"/>
<path fillRule="evenodd" clipRule="evenodd" d="M16.9405 14.6384C17.0441 14.2373 17.4531 13.9961 17.8542 14.0997C18.5157 14.2705 19.1017 14.6561 19.5202 15.196C19.9388 15.736 20.1662 16.3996 20.1667 17.0828L20.1667 18.25C20.1667 18.6642 19.8309 19 19.4167 19C19.0025 19 18.6667 18.6642 18.6667 18.25V17.0836C18.6664 16.7329 18.5496 16.3922 18.3347 16.115C18.1198 15.8378 17.8189 15.6398 17.4792 15.552C17.0781 15.4485 16.8369 15.0394 16.9405 14.6384Z" fill="white"/>
<path fillRule="evenodd" clipRule="evenodd" d="M14.6067 7.63983C14.7095 7.23857 15.1181 6.99656 15.5193 7.0993C16.1826 7.26912 16.7704 7.65484 17.1902 8.19567C17.61 8.73649 17.8379 9.40165 17.8379 10.0863C17.8379 10.7709 17.61 11.4361 17.1902 11.9769C16.7704 12.5177 16.1826 12.9034 15.5193 13.0733C15.1181 13.176 14.7095 12.934 14.6067 12.5327C14.504 12.1315 14.746 11.7229 15.1473 11.6201C15.4879 11.5329 15.7897 11.3349 16.0053 11.0571C16.2209 10.7794 16.3379 10.4378 16.3379 10.0863C16.3379 9.73471 16.2209 9.39314 16.0053 9.11542C15.7897 8.8377 15.4879 8.63963 15.1473 8.55243C14.746 8.44969 14.504 8.0411 14.6067 7.63983Z" fill="white"/>
</g>
<defs>
<clipPath id="clip0_298_6146">
<rect width="14" height="14" fill="white" transform="translate(6 6)"/>
</clipPath>
</defs>
</svg>
