<svg width="26" height="26" viewBox="0 0 26 26" fill="none" xmlns="http://www.w3.org/2000/svg">
<rect width="26" height="26" rx="13" fill="#FF70AE"/>
<path fillRule="evenodd" clipRule="evenodd" d="M8.1851 14.2684C8.79031 13.6229 9.62188 13.2504 10.5 13.2504H15.5C16.3781 13.2504 17.2097 13.6229 17.8149 14.2684C18.4186 14.9122 18.75 15.7757 18.75 16.6668V18C18.75 18.4142 18.4142 18.75 18 18.75C17.5858 18.75 17.25 18.4142 17.25 18V16.6668C17.25 16.1435 17.0546 15.6506 16.7206 15.2943C16.3882 14.9397 15.948 14.7504 15.5 14.7504H10.5C10.052 14.7504 9.61183 14.9397 9.27936 15.2943C8.94536 15.6506 8.75 16.1435 8.75 16.6668V18C8.75 18.4142 8.41421 18.75 8 18.75C7.58579 18.75 7.25 18.4142 7.25 18V16.6668C7.25 15.7757 7.58143 14.9122 8.1851 14.2684Z" fill="white"/>
<path fillRule="evenodd" clipRule="evenodd" d="M13.002 6.75C12.0803 6.75 11.252 7.56175 11.252 8.66644C11.252 9.77113 12.0803 10.5829 13.002 10.5829C13.9237 10.5829 14.752 9.77113 14.752 8.66644C14.752 7.56175 13.9237 6.75 13.002 6.75ZM9.75195 8.66644C9.75195 6.82586 11.1622 5.25 13.002 5.25C14.8417 5.25 16.252 6.82586 16.252 8.66644C16.252 10.507 14.8417 12.0829 13.002 12.0829C11.1622 12.0829 9.75195 10.507 9.75195 8.66644Z" fill="white"/>
</svg>
